<svg xmlns="http://www.w3.org/2000/svg" xmlns:xlink="http://www.w3.org/1999/xlink" width="60" height="35" viewBox="0 0 60 35">
  <defs>
    <style>
      .cls-1 {
        fill-rule: evenodd;
        fill: url(#linear-gradient);
      }
    </style>
    <linearGradient id="linear-gradient" x1="785.469" y1="2545.97" x2="820.469" y2="2580.97" gradientUnits="userSpaceOnUse">
      <stop offset="-0.25" stop-color="#96a0ff"/>
      <stop offset="1.25" stop-color="#816de9"/>
    </linearGradient>
  </defs>
  <path id="accountability-icon.svg" class="cls-1" d="M832.761,2569.99a0.948,0.948,0,0,1-.658.34c-0.361.02-2.122,0.14-4.093,0.14a17.624,17.624,0,0,1-5.5-.61,0.955,0.955,0,0,1-.533-0.6l-1.71,1.31a3.928,3.928,0,0,1-1.111,4.3,3.286,3.286,0,0,1-2.487.84,3.861,3.861,0,0,1-2.016,2.28,4.352,4.352,0,0,1-3.209.35,3.67,3.67,0,0,1-1.936,1.65,4.961,4.961,0,0,1-4.031-.22,3.459,3.459,0,0,1-2.291,1.18,5.508,5.508,0,0,1-.575.03,6.606,6.606,0,0,1-3.445-1.04c-1.107-.73-8.305-6.78-12.382-10.23l-2.625-2.24c-0.486,1.57-.828,2.6-0.877,2.75a0.951,0.951,0,0,1-.81.66c-0.167.01-2.774,0.26-5.264,0.26a15.91,15.91,0,0,1-3.5-.29,0.951,0.951,0,0,1-.728-0.94c0.086-9.27,2.536-23.02,2.561-23.15a0.943,0.943,0,0,1,1.079-.78,96.779,96.779,0,0,1,11.107,2.35c2.145-.05,7.824.12,10.6,0.39a11.058,11.058,0,0,1,10.006-.54,70.306,70.306,0,0,0,8.077,3.18c0.043,0.02.075,0.05,0.115,0.07,1.225-.52,6.587-2.6,11.452-1.63a0.993,0.993,0,0,1,.586.38c3.056,4.32,4.36,18.5,4.415,19.1A0.972,0.972,0,0,1,832.761,2569.99Zm-55.511-21.96a171.924,171.924,0,0,0-2.356,21.08,42.513,42.513,0,0,0,6.788-.09c0.843-2.62,4.171-13.21,4.882-19.06C783.926,2549.18,779.23,2548.36,777.25,2548.03Zm11.191,2.21a109.371,109.371,0,0,1-3.669,15.24l3.236,2.76c5.412,4.58,11.344,9.53,12.206,10.1a4.618,4.618,0,0,0,2.752.7,1.606,1.606,0,0,0,1-.44c-1.628-1.46-3.545-3.43-4.794-4.78a0.97,0.97,0,0,1,.045-1.36,0.939,0.939,0,0,1,1.34.05,72.155,72.155,0,0,0,5.236,5.15,0.07,0.07,0,0,1,.008.01,0.021,0.021,0,0,0,.021.01,3.012,3.012,0,0,0,3.012.51,1.772,1.772,0,0,0,.99-0.88c-1.99-1.68-6.1-5.44-6.755-6.16a0.973,0.973,0,0,1,.056-1.36,0.94,0.94,0,0,1,1.34.06c0.589,0.65,5.337,4.99,7.023,6.35,0.008,0.01.011,0.02,0.019,0.03s0.023,0.01.034,0.02a2.129,2.129,0,0,0,2.272.03,1.957,1.957,0,0,0,1.078-1.44c-1.93-1.67-7.879-7.3-8.152-7.56a0.973,0.973,0,0,1-.044-1.36,0.949,0.949,0,0,1,1.341-.04c0.071,0.06,7.049,6.67,8.384,7.75a1.255,1.255,0,0,0,1.514-.22,2.075,2.075,0,0,0,.42-2.56c-1.47-3.09-9.346-10.65-14.093-13.98l-0.2.08a7.291,7.291,0,0,1-2.539.63h-0.006c-1.242,1.85-3.6,4.95-7.2,3.74a3.019,3.019,0,0,1-2.065-2.3c-0.606-2.63,1.421-6.43,3.054-8.06,0.172-.17.352-0.33,0.541-0.5C793.344,2550.32,790.249,2550.23,788.441,2550.24Zm19.122-.31c-4.321-1.95-8.594.08-10.939,2.4-1.465,1.46-2.923,4.57-2.535,6.25a1.135,1.135,0,0,0,.81.92c2.319,0.77,3.938-1.34,5.284-3.37a0.941,0.941,0,0,1,.693-0.42l0.458-.05a5.465,5.465,0,0,0,2.071-.52l0.661-.24a0.915,0.915,0,0,1,.848.1c4.13,2.79,11.73,9.73,14.457,13.85l2.015-1.54c-1.3-4.11-3.939-11.53-5.371-14.09-0.045-.01-0.089,0-0.134-0.01A72.236,72.236,0,0,1,807.563,2549.93Zm19.669,1.69c-3.533-.58-7.457.63-9.229,1.29a127.618,127.618,0,0,1,5.646,15.3,33.131,33.131,0,0,0,7.348.26C830.539,2564.07,829.235,2554.92,827.232,2551.62Z" transform="translate(-772.969 -2545.97)"/>
</svg>
