<svg id="analytics-icon.svg" xmlns="http://www.w3.org/2000/svg" xmlns:xlink="http://www.w3.org/1999/xlink" width="32" height="28" viewBox="0 0 32 28">
  <defs>
    <style>
      .cls-1 {
        fill: #fff;
      }

      .cls-2 {
        fill-rule: evenodd;
        fill: url(#linear-gradient);
      }
    </style>
    <linearGradient id="linear-gradient" x1="1008" y1="4154" x2="1036" y2="4126" gradientUnits="userSpaceOnUse">
      <stop offset="-0.25" stop-color="#6c55e5"/>
      <stop offset="1.25" stop-color="#816de9"/>
    </linearGradient>
  </defs>
  <rect class="cls-1" x="4" y="2" width="24" height="19"/>
  <path id="_59-document_-_analytic_graph_up" data-name="59-document - analytic graph up" class="cls-2" d="M1037,4128h-1v18a2.006,2.006,0,0,1-2,2h-8.64l2.49,4.58a0.876,0.876,0,0,1-.41,1.3,1.216,1.216,0,0,1-1.51-.35l-2.78-5.12a0.807,0.807,0,0,1-.14-0.41h-2.02a0.807,0.807,0,0,1-.14.41l-2.78,5.12a1.216,1.216,0,0,1-1.51.35,0.876,0.876,0,0,1-.41-1.3l2.49-4.58H1010a2,2,0,0,1-2-2v-18h-1a1,1,0,0,1,0-2h30A1,1,0,0,1,1037,4128Zm-3,0h-24v1h0v16a1,1,0,0,0,1,1h22a1,1,0,0,0,1-1v-15h0v-2Zm-16.87,6.5c0.01-.01.03-0.02,0.04-0.03a0.612,0.612,0,0,1,.15-0.17,0.9,0.9,0,0,1,.19-0.15,0.133,0.133,0,0,1,.05-0.03,0.257,0.257,0,0,1,.05-0.02,0.717,0.717,0,0,1,.25-0.07,1.16,1.16,0,0,1,1.21.43l4.89,3.48,6.17-5.64a1,1,0,0,1,1.74,1l-7,6.39a1.01,1.01,0,0,1-1.37.37,0.7,0.7,0,0,1-.15-0.19,1.007,1.007,0,0,1-.42-0.34l-4.65-3.31-4.41,5.27a1.01,1.01,0,0,1-1.37.37,1.022,1.022,0,0,1-.37-1.38Z" transform="translate(-1006 -4126)"/>
</svg>
