<svg xmlns="http://www.w3.org/2000/svg" width="129" height="228" viewBox="0 0 129 228"><defs><style>.cls-1 { fill: #e5f7ff; } .cls-1, .cls-2, .cls-3, .cls-4 { fill-rule: evenodd; } .cls-2 { fill: #fff; } .cls-3 { fill: url(#linear-gradient); } .cls-4 { fill: url(#linear-gradient-2); }</style><linearGradient id="linear-gradient" x1="839.839" y1="3225.78" x2="828.755" y2="3238.09" gradientUnits="userSpaceOnUse"><stop offset="-.25" stop-color="#ffaa24"/><stop offset="1.25" stop-color="#fec70b"/></linearGradient><linearGradient id="linear-gradient-2" x1="865" y1="3103.365" x2="736" y2="3246.635" gradientUnits="userSpaceOnUse"><stop offset="-.25" stop-color="#0d91f2"/><stop offset="1.25" stop-color="#00beed"/></linearGradient></defs><path class="cls-1" d="M41 207h-9v-2h9v-8h-9v-2h9v-8h-9v-2h9v-8h-9v-2h9v-8h-9v-2h9v-8h-9v-2h9v-9h-9v-2h9v-8h-9v-2h9v-8h-39v90h39v-9zm61-52l-30-29h-29v29h59zm-59 61h29l29-29h-58v29zm82.579-31.71"/><path class="cls-2" d="M838.332 3231.94a4.032 4.032 0 1 0-4.032 4.01 4.029 4.029 0 0 0 4.032-4.01z" transform="translate(-736 -3061)"/><path class="cls-3" d="M828.1 3231.94a6.2 6.2 0 1 1 6.2 6.16 6.187 6.187 0 0 1-6.2-6.16zm10.233 0a4.032 4.032 0 1 0-4.032 4.01 4.029 4.029 0 0 0 4.031-4.01z" transform="translate(-736 -3061)"/><path class="cls-4" d="M854.766 3233.01v-2.15h10.234v2.15h-10.234zm-3.42-12.31l10.233-2.12.443 2.11-10.233 2.12zm-42.346 58.3h-35l-.015 1.92a7.993 7.993 0 0 1-7.985 8.08h-17a7.944 7.944 0 0 1-8-8v-2h-5v-93.95h5.117l-.117-124.05h2v124h29v-124h2l-.015 124.05h35.18l33.835 32.95h-64v28h63zm-66 2a6.058 6.058 0 0 0 6 6h17a6.058 6.058 0 0 0 6-6v-2h-29v2zm34-13h-9v-2h9v-8h-9v-2h9v-8h-9v-2h9v-8h-9v-2h9v-8h-9v-2h9v-8h-9v-2h9v-9h-9v-2h9v-8h-9v-2h9v-8h-39v90h39v-9zm61-52l-30-29h-29v29h59zm-59 61h29l29-29h-58v29zm83.022-33.82l-.443 2.11-10.233-2.12.443-2.11z" transform="translate(-736 -3061)"/></svg>