<svg xmlns="http://www.w3.org/2000/svg" width="28" height="28" viewBox="0 0 28 28">
  <defs>
    <style>
      .cls-1 {
        fill: #24a5e2;
        fill-rule: evenodd;
      }
    </style>
  </defs>
  <path id="insto.svg" class="cls-1" d="M1023.96,4858.12a5.83,5.83,0,1,1-5.83,5.83A5.832,5.832,0,0,1,1023.96,4858.12Zm-5.7.08a8.124,8.124,0,0,1,11.55,0,8,8,0,0,1,2.06,3.47H1038v-8.24a3.373,3.373,0,0,0-3.43-3.43h-21a3.5,3.5,0,0,0-3.57,3.43v8.24h6.2A7.945,7.945,0,0,1,1018.26,4858.2Zm17.41-2.13a0.937,0.937,0,0,1-.94.93h-2.8a0.935,0.935,0,0,1-.93-0.93v-2.8a0.937,0.937,0,0,1,.93-0.94h2.8a0.939,0.939,0,0,1,.94.94v2.8Zm-5.86,13.67a8.184,8.184,0,0,1-11.55.01,8.184,8.184,0,0,1-2.39-5.75H1010v10.43a3.625,3.625,0,0,0,3.57,3.57h21a3.5,3.5,0,0,0,3.43-3.57V4864h-5.8A8.161,8.161,0,0,1,1029.81,4869.74Z" transform="translate(-1010 -4850)"/>
</svg>
