<svg xmlns="http://www.w3.org/2000/svg" width="27.969" height="28.03" viewBox="0 0 27.969 28.03">
  <defs>
    <style>
      .cls-1 {
        fill: #24a5e2;
        fill-rule: evenodd;
      }
    </style>
  </defs>
  <path id="link.svg" class="cls-1" d="M834.379,4876.02h-6v-18.91h6v18.91Zm-3-21.49h-0.04A3.417,3.417,0,1,1,831.379,4854.53Zm24.63,21.49h-6V4865.9c0-2.54-.869-4.27-3.039-4.27a3.292,3.292,0,0,0-3.074,2.3,4.374,4.374,0,0,0-.2,1.53v10.56H837.7s0.076-17.13,0-18.91h5.994v2.68a5.93,5.93,0,0,1,5.407-3.12c3.949,0,6.909,2.7,6.909,8.51v10.84Zm-12.351-16.17a0.382,0.382,0,0,0,.035-0.06v0.06h-0.035Z" transform="translate(-828.031 -4848)"/>
</svg>
