<svg xmlns="http://www.w3.org/2000/svg" width="16" height="16" viewBox="0 0 16 16">
  <defs>
    <style>
      .cls-1 {
        fill: #fff;
        fill-rule: evenodd;
      }
    </style>
  </defs>
  <path id="logolinked.svg" class="cls-1" d="M1332.64,5127.01h-3.42v-10.8h3.42v10.8Zm-1.71-12.28h-0.02A1.952,1.952,0,1,1,1330.93,5114.73Zm14.08,12.28h-3.43v-5.78c0-1.45-.5-2.44-1.74-2.44a1.892,1.892,0,0,0-1.76,1.31,2.583,2.583,0,0,0-.11.88v6.03h-3.43s0.05-9.79,0-10.8h3.43v1.53a3.372,3.372,0,0,1,3.09-1.79c2.25,0,3.95,1.55,3.95,4.87v6.19Zm-7.06-9.24a0.053,0.053,0,0,1,.02-0.03v0.03h-0.02Z" transform="translate(-1329 -5111)"/>
</svg>
