<svg xmlns="http://www.w3.org/2000/svg" width="18" height="14" viewBox="0 0 18 14">
  <defs>
    <style>
      .cls-1 {
        fill: #fff;
        fill-rule: evenodd;
      }
    </style>
  </defs>
  <path id="logotwit.svg" class="cls-1" d="M1264,5114.61l-1.69,1.61v0.27a3.354,3.354,0,0,1-.12.85,9.311,9.311,0,0,1-3.82,7.48c-5.97,4.56-12.37.54-12.37,0.54,5.06,0,5.06-1.62,5.06-1.62-1.12,0-3.37-2.14-3.37-2.14a1.776,1.776,0,0,0,1.68,0c-2.81-1.62-2.81-3.23-2.81-3.23a1.768,1.768,0,0,0,1.69,0,3.6,3.6,0,0,1-1.13-4.83c0.57,2.68,7.88,3.76,7.88,3.76l0.09-.05a6.8,6.8,0,0,1-.09-1.03,3.371,3.371,0,0,1,3.66-3.22,3.682,3.682,0,0,1,2.76,1.23l0.33-.15,1.69-1.08-1.13,2.15Z" transform="translate(-1246 -5113)"/>
</svg>
