<svg xmlns="http://www.w3.org/2000/svg" xmlns:xlink="http://www.w3.org/1999/xlink" width="45" height="42" viewBox="0 0 45 42">
  <defs>
    <style>
      .cls-1 {
        fill-rule: evenodd;
        fill: url(#linear-gradient);
      }
    </style>
    <linearGradient id="linear-gradient" x1="275.5" y1="3987" x2="317.5" y2="3945" gradientUnits="userSpaceOnUse">
      <stop offset="-0.25" stop-color="#fc5441"/>
      <stop offset="1.25" stop-color="#e93a80"/>
    </linearGradient>
  </defs>
  <path id="reporting-icon.svg" class="cls-1" d="M317.5,3948H316v26.99a3,3,0,0,1-3,3H301.543l3.733,6.88a1.324,1.324,0,0,1-.61,1.95,1.824,1.824,0,0,1-2.276-.53l-4.167-7.67a1.246,1.246,0,0,1-.2-0.63H294.98a1.246,1.246,0,0,1-.2.63l-4.167,7.67a1.824,1.824,0,0,1-2.276.53,1.324,1.324,0,0,1-.61-1.95l3.733-6.88H280a3,3,0,0,1-3-3V3948h-1.5a1.5,1.5,0,0,1,0-3h42A1.5,1.5,0,1,1,317.5,3948Zm-4.5,0H280v25.49a1.5,1.5,0,0,0,1.5,1.5h30a1.5,1.5,0,0,0,1.5-1.5V3951h0v-3Zm-25.5,14.99a1.508,1.508,0,0,1,1.5,1.51v5.99a1.5,1.5,0,0,1-3,0v-5.99A1.508,1.508,0,0,1,287.5,3962.99Zm8.984-11.99h0.031a1.5,1.5,0,0,1,1.484,1.5v17.99a1.5,1.5,0,1,1-3,0V3952.5A1.5,1.5,0,0,1,296.484,3951Zm9.015,4.49A1.507,1.507,0,0,1,307,3957v13.49a1.5,1.5,0,0,1-3,0V3957A1.508,1.508,0,0,1,305.5,3955.49Z" transform="translate(-274 -3945)"/>
</svg>
