<svg xmlns="http://www.w3.org/2000/svg" width="28" height="23" viewBox="0 0 28 23">
  <defs>
    <style>
      .cls-1 {
        fill: #24a5e2;
        fill-rule: evenodd;
      }
    </style>
  </defs>
  <path id="twit.svg" class="cls-1" d="M582,4855.73a11.434,11.434,0,0,1-3.3.91,5.828,5.828,0,0,0,2.528-3.21,11.3,11.3,0,0,1-3.649,1.41,5.771,5.771,0,0,0-9.791,5.29,16.22,16.22,0,0,1-11.843-6.07,5.847,5.847,0,0,0,1.786,7.75,5.61,5.61,0,0,1-2.611-.72v0.07a5.8,5.8,0,0,0,4.611,5.69,5.807,5.807,0,0,1-1.513.2,4.84,4.84,0,0,1-1.08-.11,5.745,5.745,0,0,0,5.37,4.03,11.439,11.439,0,0,1-7.138,2.49,12.43,12.43,0,0,1-1.371-.08,15.989,15.989,0,0,0,8.793,2.62c10.58,0,16.359-8.85,16.359-16.52q0-.375-0.018-0.75A11.834,11.834,0,0,0,582,4855.73Z" transform="translate(-554 -4853)"/>
</svg>
