<svg xmlns="http://www.w3.org/2000/svg" width="30" height="23" viewBox="0 0 30 23">
  <defs>
    <style>
      .cls-1 {
        fill: #24a5e2;
        fill-rule: evenodd;
      }
    </style>
  </defs>
  <path id="youtube.svg" class="cls-1" d="M947.806,4858.08a4.61,4.61,0,0,0-4.337-4.86c-3.246-.16-6.557-0.22-9.939-0.22h-1.055c-3.375,0-6.692.06-9.939,0.22a4.625,4.625,0,0,0-4.331,4.87c-0.146,2.13-.211,4.27-0.205,6.4s0.059,4.26.2,6.4a4.627,4.627,0,0,0,4.33,4.88c3.411,0.16,6.91.24,10.467,0.23,3.563,0.01,7.05-.06,10.466-0.23a4.628,4.628,0,0,0,4.337-4.88c0.141-2.14.205-4.27,0.2-6.41Q948.017,4861.285,947.806,4858.08Zm-17.675,12.28v-11.77l8.5,5.89Z" transform="translate(-918 -4853)"/>
</svg>
